:SAMPLES-PER-SECOND 30
:FRAME-RANGE 1-668
:FULLY-SPECIFIED
:DEGREES
335
root  41.6096 39.9714 7.94555 -173.429 -57.817 172.215
RightUpLeg  -3.05488 -11.3205 -12.2885
RightLeg  9.79139 -5.65551 -1.38197
RightFoot  -5.19319 -0.527493 9.14343
RightToes  -1.33073e-015 0 -3.6325e-017
Spine  4.18932 4.69119 8.07419
Spine1  4.76732 1.3104 16.6842
HEad  6.82141 41.7279 -15.4395
LeftShoulder1  0.12552 1.45296 2.65824
LeftArm  6.39166 7.00938 0.588227
LeftForeArm  -40.8667 -55.7113 -19.2714
LeftHand  -3.60091 19.5891 -26.8329
RightShoulder  4.84939 9.80521 30.5093
RightArm  -29.3421 10.2419 -10.6119
RightForeArm  17.8215 17.7534 5.61085
RightHand  -0.593948 2.43408 -9.00727
LeftUpLeg  -5.77098 1.9898 -2.16809
LeftLeg  7.22184 -6.33529 -1.436
LeftFoot  -2.24241 0.365723 -4.42658
LeftToes  -2.73175e-012 1.00346e-010 -4.28452e-011
336
root  41.6519 39.9646 7.89132 -172.744 -59.551 171.006
RightUpLeg  -2.46576 -11.8084 -12.8714
RightLeg  10.5328 -6.75004 -1.56697
RightFoot  -5.6558 -0.490092 9.07417
RightToes  -1.33073e-015 0 -3.6325e-017
Spine  4.42733 4.66443 8.35637
Spine1  3.50491 1.54953 16.4215
HEad  8.18758 40.0645 -13.9817
LeftShoulder1  0.130402 1.3847 2.6202
LeftArm  2.42524 0.427174 1.94847
LeftForeArm  -39.5481 -46.4255 -13.9211
LeftHand  -2.39456 15.2553 -25.6532
RightShoulder  5.05776 9.95957 31.6521
RightArm  -29.6595 9.77198 -10.8956
RightForeArm  18.3472 17.128 5.83165
RightHand  -0.606975 2.34696 -9.29703
LeftUpLeg  -5.26851 1.60787 -2.5503
LeftLeg  6.77312 -7.64344 -1.58309
LeftFoot  -1.993 0.394379 -4.67661
LeftToes  -2.73175e-012 1.00346e-010 -4.28452e-011
337
root  41.7392 39.9608 7.80117 -172.356 -61.0039 170.376
RightUpLeg  -2.14902 -11.848 -12.8881
RightLeg  11.1316 -8.02069 -1.87708
RightFoot  -6.00151 -0.45726 8.91031
RightToes  -1.33073e-015 0 -3.6325e-017
Spine  4.39706 4.61799 8.36347
Spine1  2.69142 1.64421 16.2598
HEad  8.26966 38.3725 -13.5286
LeftShoulder1  0.147017 1.28835 2.06995
LeftArm  -2.10985 -6.35604 2.93142
LeftForeArm  -36.1925 -36.6121 -10.0851
LeftHand  -1.12121 10.3691 -23.3417
RightShoulder  5.42004 10.5044 32.7784
RightArm  -30.7416 9.51404 -10.8652
RightForeArm  19.4143 16.0217 6.17083
RightHand  -0.606681 2.35569 -9.28279
LeftUpLeg  -5.09298 1.38941 -2.5443
LeftLeg  6.56231 -8.84176 -1.66147
LeftFoot  -1.83921 0.425512 -4.98601
LeftToes  -2.73175e-012 1.00346e-010 -4.28452e-011
338
root  41.8469 39.9669 7.69038 -172.277 -62.0755 170.292
RightUpLeg  -1.95261 -11.8298 -12.6199
RightLeg  11.3313 -9.11313 -1.91337
RightFoot  -6.17326 -0.429482 8.56802
RightToes  -1.33073e-015 0 -3.6325e-017
Spine  4.26698 4.46428 8.33835
Spine1  2.14866 1.6485 15.7691
HEad  7.91468 36.9797 -12.7667
LeftShoulder1  0.184932 1.085 0.919246
LeftArm  -9.82491 -12.6943 4.20486
LeftForeArm  -33.4091 -27.8081 -7.50609
LeftHand  -0.260628 6.50959 -20.423
RightShoulder  6.04772 11.4939 34.3948
RightArm  -31.5406 9.33771 -10.7323
RightForeArm  19.8888 15.0647 6.47204
RightHand  -0.611664 2.36369 -9.3481
LeftUpLeg  -5.12115 1.24001 -2.26743
LeftLeg  6.34109 -9.5844 -1.60828
LeftFoot  -1.66094 0.464409 -5.36532
LeftToes  -2.73175e-012 1.00346e-010 -4.28452e-011
339
root  41.9682 39.9749 7.57194 -172.44 -62.7917 170.58
RightUpLeg  -1.80713 -11.8497 -12.2529
RightLeg  11.2043 -9.85462 -1.67974
RightFoot  -6.26876 -0.412982 8.34392
RightToes  -1.33073e-015 0 -3.6325e-017
Spine  4.00253 4.1747 8.28097
Spine1  2.07117 1.51578 14.9182
HEad  7.07594 35.9412 -12.1516
LeftShoulder1  0.245114 0.80909 -0.731158
LeftArm  -26.1951 -18.3378 6.13534
LeftForeArm  -23.9903 -20.1903 -7.30691
LeftHand  0.322028 3.11218 -17.8125
RightShoulder  6.82438 12.699 36.1486
RightArm  -32.0534 9.46543 -10.2436
RightForeArm  20.7026 14.071 6.77491
RightHand  -0.602772 2.45641 -9.11328
LeftUpLeg  -5.32627 1.04517 -1.88939
LeftLeg  6.26069 -10.0758 -1.45804
LeftFoot  -1.49122 0.495051 -5.63947
LeftToes  -2.73175e-012 1.00346e-010 -4.28452e-011
340
root  42.099 39.9856 7.44194 -172.822 -63.0861 171.236
RightUpLeg  -1.83516 -11.8004 -11.7373
RightLeg  10.8935 -10.2842 -1.28559
RightFoot  -6.26821 -0.402823 8.11498
RightToes  -1.33073e-015 0 -3.6325e-017
Spine  3.9334 3.74731 8.02424
Spine1  1.79541 1.30664 13.8648
HEad  6.26285 35.6863 -11.2165
LeftShoulder1  0.324389 0.569207 -2.95174
LeftArm  -48.1834 -23.0923 8.724
LeftForeArm  -10.9625 -16.0177 -7.23381
LeftHand  0.62253 0.630736 -15.3488
RightShoulder  7.64112 13.9921 37.6469
RightArm  -32.211 9.77932 -8.85536
RightForeArm  22.105 13.126 7.03138
RightHand  -0.607824 2.53514 -9.10207
LeftUpLeg  -5.68063 0.888447 -1.38211
LeftLeg  6.3201 -10.3159 -1.26575
LeftFoot  -1.39085 0.52007 -5.87625
LeftToes  -2.73175e-012 1.00346e-010 -4.28452e-011
341
root  42.2415 39.9951 7.3017 -173.601 -62.6826 172.203
RightUpLeg  -2.00556 -11.4234 -10.9852
RightLeg  10.6207 -10.4428 -1.08453
RightFoot  -6.23189 -0.395224 7.89344
RightToes  -1.33073e-015 0 -3.6325e-017
Spine  4.16234 3.31776 7.67857
Spine1  1.70368 1.13145 12.6157
HEad  5.42375 35.9581 -10.3837
LeftShoulder1  0.434291 0.277224 -5.66791
LeftArm  -59.4658 -26.936 11.4922
LeftForeArm  -5.38377 -17.1446 -5.6809
LeftHand  0.678155 -0.766581 -12.7346
RightShoulder  8.564 15.418 39.1543
RightArm  -31.8356 10.193 -7.06931
RightForeArm  23.12 12.6932 7.18213
RightHand  -0.621912 2.64211 -9.19115
LeftUpLeg  -5.88629 1.27979 -0.646948
LeftLeg  6.39905 -10.3361 -1.23595
LeftFoot  -1.36 0.535433 -6.03576
LeftToes  -2.73175e-012 1.00346e-010 -4.28452e-011
342
root  42.3645 40.0131 7.15955 -174.356 -61.6625 173.106
RightUpLeg  -2.26293 -10.9612 -10.2659
RightLeg  10.3112 -9.93154 -0.892124
RightFoot  -6.13334 -0.385699 7.55051
RightToes  -1.33073e-015 0 -3.6325e-017
Spine  4.32753 2.90335 7.36931
Spine1  2.02933 0.992376 11.0597
HEad  4.25828 36.629 -9.99039
LeftShoulder1  0.571552 0.0162115 -8.95061
LeftArm  -63.2041 -29.9422 14.4642
LeftForeArm  -2.25272 -21.0449 -5.04437
LeftHand  0.522019 -1.10167 -9.2582
RightShoulder  9.6934 16.9125 41.2379
RightArm  -31.0201 10.9557 -5.98199
RightForeArm  23.7862 12.3644 7.4186
RightHand  -0.615069 2.74115 -8.98886
LeftUpLeg  -5.85289 1.85568 0.0461693
LeftLeg  6.28371 -9.87359 -1.17955
LeftFoot  -1.28369 0.541624 -6.06523
LeftToes  -2.73175e-012 1.00346e-010 -4.28452e-011
343
root  42.4575 40.032 7.02662 -175.091 -60.2188 173.891
RightUpLeg  -2.45621 -10.4771 -9.63098
RightLeg  9.96159 -9.14246 -0.744019
RightFoot  -6.03035 -0.385893 7.42349
RightToes  -1.33073e-015 0 -3.6325e-017
Spine  4.49558 2.56422 7.3927
Spine1  2.47429 1.05437 8.97617
HEad  3.21673 37.5119 -9.56165
LeftShoulder1  0.769748 -0.391059 -12.6974
LeftArm  -65.6023 -32.1331 16.389
LeftForeArm  2.30753 -26.7529 -5.63209
LeftHand  0.256924 -1.03209 -4.56708
RightShoulder  10.7496 18.2345 43.0585
RightArm  -30.5005 11.5414 -4.64013
RightForeArm  24.5014 11.9756 7.60387
RightHand  -0.638213 2.81964 -9.23417
LeftUpLeg  -5.56114 2.427 0.663579
LeftLeg  6.03713 -9.04616 -1.05473
LeftFoot  -1.20406 0.543281 -6.04469
LeftToes  -2.73175e-012 1.00346e-010 -4.28452e-011
344
root  42.5336 40.0427 6.91068 -175.871 -58.6104 174.602
RightUpLeg  -2.61929 -10.0493 -9.07212
RightLeg  9.76863 -7.89902 -0.569868
RightFoot  -5.93643 -0.375257 7.0837
RightToes  -1.33073e-015 0 -3.6325e-017
Spine  4.61691 2.3143 7.67263
Spine1  3.20425 1.28494 6.59885
HEad  2.77546 38.2808 -8.91598
LeftShoulder1  1.03977 -0.972491 -16.497
LeftArm  -66.7453 -33.7728 16.8986
LeftForeArm  8.2017 -32.6081 -6.74361
LeftHand  -0.0282345 -0.756122 0.615047
RightShoulder  11.5985 19.1532 44.6472
RightArm  -29.134 11.9897 -3.30309
RightForeArm  23.9383 12.1948 7.77616
RightHand  -0.628917 2.82288 -9.09997
LeftUpLeg  -5.15374 3.01543 1.256
LeftLeg  5.92159 -8.13184 -0.960618
LeftFoot  -1.23574 0.547309 -6.10379
LeftToes  -2.73175e-012 1.00346e-010 -4.28452e-011
345
root  42.5815 40.0457 6.80834 -176.571 -57.0578 175.129
RightUpLeg  -2.69568 -9.58939 -8.57493
RightLeg  9.73125 -6.89914 -0.589913
RightFoot  -5.983 -0.369006 7.00539
RightToes  -1.33073e-015 0 -3.6325e-017
Spine  4.54826 2.01765 7.81222
Spine1  4.21525 1.44427 4.36
HEad  2.31048 39.067 -8.402
LeftShoulder1  1.34458 -1.53124 -20.2513
LeftArm  -65.2649 -34.7638 15.8248
LeftForeArm  14.559 -38.5741 -8.02986
LeftHand  -0.286998 0.271294 6.53763
RightShoulder  12.2676 19.8262 45.9022
RightArm  -28.156 12.5181 -1.93221
RightForeArm  23.9555 12.1577 7.93759
RightHand  -0.63848 2.90935 -9.14425
LeftUpLeg  -4.67325 3.60664 1.77081
LeftLeg  5.94809 -7.24323 -0.930269
LeftFoot  -1.37868 0.541317 -6.11321
LeftToes  -2.73175e-012 1.00346e-010 -4.28452e-011
